<?xml version="1.0" standalone="no"?>
<!DOCTYPE svg PUBLIC "-//W3C//DTD SVG 20010904//EN"
 "http://www.w3.org/TR/2001/REC-SVG-20010904/DTD/svg10.dtd">
<svg version="1.0" xmlns="http://www.w3.org/2000/svg"
 width="512.000000pt" height="512.000000pt" viewBox="0 0 512.000000 512.000000"
 preserveAspectRatio="xMidYMid meet">
<metadata>
Created by potrace 1.14, written by Peter Selinger 2001-2017
</metadata>
<g transform="translate(0.000000,512.000000) scale(0.100000,-0.100000)"
fill="#000000" stroke="none">
<path d="M43 2555 l0 -2515 471 1 c259 0 478 3 486 7 17 8 21 73 5 84 -6 5 -5
8 3 8 10 0 10 5 2 20 -8 15 -8 20 2 20 9 0 9 3 -2 10 -8 5 -10 10 -4 10 10 0
10 62 -1 79 -3 5 1 12 7 14 9 4 9 6 -1 6 -11 1 -10 5 5 17 10 8 14 13 8 10
-15 -7 -27 21 -13 29 5 4 6 13 0 22 -5 9 -5 29 -1 44 6 19 4 29 -3 33 -8 3 -8
5 1 5 10 1 10 6 2 21 -8 15 -8 20 2 20 9 0 9 3 -2 10 -8 5 -10 10 -4 10 10 0
10 62 -1 79 -3 5 1 12 7 14 9 4 9 6 -1 6 -11 1 -10 5 5 17 10 8 14 13 8 10
-15 -7 -27 21 -13 29 5 4 6 13 0 22 -5 9 -5 29 -1 44 6 19 4 29 -3 33 -8 3 -8
5 1 5 10 1 10 6 2 21 -8 15 -8 20 2 20 9 0 9 3 -2 10 -8 5 -10 10 -4 10 10 0
10 62 -1 79 -3 5 1 12 7 14 9 4 9 6 -1 6 -11 1 -10 5 5 17 10 8 14 13 8 10
-15 -7 -27 21 -13 29 5 4 6 13 0 22 -5 9 -5 29 -1 44 6 19 4 29 -3 33 -8 3 -8
5 1 5 10 1 10 6 2 21 -8 15 -8 20 2 20 9 0 9 3 -2 10 -8 5 -10 10 -4 10 11 0
10 62 -1 80 -3 6 0 10 7 10 9 0 9 3 -2 10 -8 5 -10 10 -5 10 14 0 13 53 0 62
-6 5 -5 8 4 8 11 0 11 3 1 15 -7 8 -8 15 -3 15 6 0 7 21 3 50 -4 28 -3 53 2
56 4 3 4 13 -1 21 -5 9 -5 29 -1 44 6 19 4 29 -3 33 -8 3 -7 5 2 5 11 1 11 4
1 16 -7 8 -8 15 -3 15 6 0 7 21 3 50 -4 28 -3 53 2 56 4 3 4 13 -1 21 -5 9 -5
29 -1 44 6 19 4 29 -3 33 -8 3 -7 5 2 5 11 1 11 4 1 16 -7 8 -8 15 -3 15 5 0
7 21 3 50 -4 33 -3 50 4 50 6 0 4 5 -4 10 -8 5 -10 10 -4 10 14 0 13 32 -1 42
-6 5 -5 8 3 8 10 0 10 5 2 20 -8 15 -8 20 2 20 8 0 9 3 3 8 -14 10 -15 42 -1
42 6 0 4 5 -4 10 -8 5 -10 10 -4 10 14 0 13 32 -1 42 -6 5 -5 8 3 8 9 0 10 5
2 19 -7 14 -6 21 3 24 8 4 9 6 0 6 -8 1 -9 10 -3 30 6 21 5 31 -3 35 -8 3 -7
5 2 5 11 1 11 4 1 16 -7 8 -8 15 -3 15 6 0 7 21 3 50 -4 28 -3 53 2 56 4 3 4
13 -1 21 -5 9 -5 29 -1 44 6 19 4 29 -3 33 -8 3 -8 5 1 5 10 1 10 6 2 21 -8
15 -8 20 2 20 9 0 9 3 -2 10 -8 5 -10 10 -4 10 11 0 10 62 -1 80 -3 6 0 10 7
10 10 0 10 2 -1 9 -11 7 -11 9 0 14 12 4 11 7 -1 16 -13 10 -13 11 0 11 11 0
12 2 3 8 -8 5 -9 13 -3 22 5 9 5 19 -2 27 -6 7 -6 13 -1 13 5 0 7 21 3 50 -4
33 -3 50 4 50 6 0 4 5 -4 10 -10 6 -11 10 -3 10 9 0 10 7 3 25 -7 19 -6 23 5
18 8 -3 13 -9 10 -13 -3 -4 2 -10 10 -14 8 -3 15 -12 15 -21 0 -8 4 -15 9 -15
6 0 8 -9 6 -20 -2 -11 0 -18 4 -15 9 5 24 -20 26 -41 0 -6 8 -19 18 -28 9 -10
17 -24 17 -32 0 -9 5 -12 12 -8 7 4 8 3 4 -4 -7 -11 19 -60 39 -74 5 -4 7 -8
2 -8 -10 0 21 -60 31 -60 4 0 8 -9 9 -20 1 -11 9 -27 17 -36 9 -9 14 -20 11
-25 -4 -5 -1 -9 5 -9 6 0 9 -4 6 -9 -3 -5 1 -12 10 -15 9 -4 14 -13 10 -21 -3
-8 0 -14 6 -12 6 1 13 -4 16 -12 3 -9 0 -11 -9 -6 -8 5 0 -7 16 -25 17 -18 23
-29 15 -25 -11 6 -10 3 3 -12 9 -11 17 -23 17 -27 0 -4 9 -21 21 -37 11 -16
17 -29 12 -29 -4 0 0 -5 10 -11 9 -6 15 -14 12 -18 -2 -5 2 -14 10 -21 8 -7
15 -21 15 -31 0 -11 4 -19 8 -19 5 0 14 -16 22 -35 8 -19 18 -35 22 -35 5 0 6
-4 3 -10 -3 -5 -1 -10 5 -10 6 0 8 -4 5 -10 -3 -6 -1 -10 5 -10 6 0 9 -4 5 -9
-3 -6 0 -13 7 -18 16 -10 53 -83 51 -100 0 -7 6 -13 14 -13 8 0 11 -4 8 -10
-3 -5 -1 -10 5 -10 6 0 8 -5 5 -10 -3 -5 -1 -10 5 -10 6 0 9 -4 5 -9 -3 -5 2
-17 11 -25 8 -9 12 -16 7 -16 -4 0 0 -5 10 -11 9 -6 15 -14 12 -19 -3 -5 -1
-11 5 -15 6 -4 8 -11 5 -16 -4 -5 -1 -9 4 -9 6 0 11 -7 11 -15 0 -8 5 -15 12
-15 6 0 8 -3 5 -7 -4 -3 1 -12 11 -20 9 -8 11 -11 3 -8 -14 8 16 -44 33 -56 5
-4 5 -12 2 -18 -4 -6 -2 -11 3 -11 6 0 11 -7 11 -15 0 -8 4 -15 9 -15 8 0 24
-37 22 -52 -1 -5 7 -8 17 -9 9 0 12 -3 5 -6 -9 -3 -7 -11 7 -26 11 -11 20 -29
20 -39 0 -10 5 -18 10 -18 6 0 10 -7 10 -15 0 -8 5 -15 11 -15 5 0 8 -4 4 -9
-3 -5 2 -16 10 -24 8 -9 15 -23 15 -31 0 -9 5 -16 10 -16 6 0 10 -7 10 -15 0
-8 4 -15 10 -15 5 0 9 -3 8 -7 -1 -5 3 -18 10 -30 7 -13 9 -23 5 -23 -4 0 0
-5 9 -10 9 -6 22 -26 28 -45 6 -19 16 -35 21 -35 5 0 9 -9 9 -20 0 -11 3 -20
8 -20 4 0 18 -25 32 -55 14 -30 28 -55 33 -55 4 0 7 -9 7 -21 0 -11 4 -18 9
-14 6 3 8 -4 6 -15 -2 -13 1 -20 11 -20 8 0 13 -3 12 -8 -2 -10 22 -61 45 -94
10 -16 15 -28 10 -28 -4 0 -3 -4 4 -8 6 -4 13 -14 15 -22 2 -8 9 -21 16 -28 7
-8 9 -18 6 -24 -4 -6 -2 -8 3 -5 6 4 16 -8 23 -26 7 -17 23 -43 34 -57 12 -14
14 -20 6 -15 -13 8 -13 7 0 -5 9 -9 15 -21 12 -28 -2 -6 4 -12 13 -12 9 0 14
-4 11 -8 -2 -4 4 -8 14 -8 10 0 16 4 14 8 -3 4 -1 8 5 8 5 0 11 -6 14 -12 3
-10 7 -10 17 -1 10 9 19 9 33 2 14 -8 18 -8 13 0 -4 6 -3 11 3 11 5 0 11 -6
14 -12 3 -10 7 -10 17 -1 10 9 19 9 33 2 14 -8 18 -8 13 0 -4 6 -3 11 3 11 5
0 11 -6 14 -12 3 -10 7 -10 19 -1 8 7 18 10 22 6 10 -10 46 -11 40 -1 -3 4 0
8 5 8 6 0 11 -5 11 -11 0 -8 5 -8 15 1 11 9 15 9 15 1 0 -7 5 -9 11 -6 5 4 21
8 35 10 19 2 24 -1 19 -13 -4 -12 0 -11 16 4 14 12 19 13 14 4 -6 -12 -5 -12
5 -3 7 6 20 9 29 6 9 -4 13 -3 9 2 -4 4 1 20 11 34 10 14 22 36 25 49 4 12 12
22 17 22 5 0 9 3 8 8 -2 14 13 52 21 52 4 0 11 12 15 27 3 15 12 31 18 35 6 3
12 17 14 30 2 13 10 28 18 34 8 6 12 14 8 17 -3 4 -1 7 6 7 7 0 10 4 7 9 -3 5
1 14 9 21 8 7 12 16 9 21 -3 5 0 9 5 9 6 0 11 5 11 12 0 6 8 20 18 31 10 12
11 17 3 12 -8 -4 1 14 19 40 18 26 27 45 19 41 -8 -4 -3 2 11 13 17 14 20 21
10 21 -12 1 -12 3 2 14 15 11 32 43 38 71 1 6 8 14 16 18 8 5 12 12 9 18 -4 5
-1 9 4 9 6 0 10 3 10 8 -3 20 2 32 12 26 7 -4 10 -1 7 7 -3 8 2 20 11 27 13
11 13 12 1 6 -11 -6 -10 -2 3 13 9 11 17 25 17 32 0 7 4 10 9 6 6 -3 8 4 6 15
-2 11 -1 20 3 20 4 0 20 26 36 58 17 31 39 70 50 86 13 19 15 26 5 21 -12 -7
-12 -6 1 11 8 10 22 25 30 32 13 12 13 13 0 7 -12 -5 -12 -4 1 7 9 7 16 16 15
19 -1 9 58 123 67 130 5 3 8 8 7 10 -3 8 14 45 32 68 10 13 15 27 12 32 -3 5
0 9 7 9 7 0 10 3 6 6 -3 3 3 15 13 27 11 11 17 24 14 29 -3 4 0 8 5 8 6 0 11
7 11 16 0 9 9 27 20 41 11 14 17 29 14 34 -3 5 0 9 5 9 6 0 11 7 11 15 0 8 5
15 10 15 6 0 10 7 10 15 0 8 6 15 13 15 8 0 7 4 -3 10 -10 6 -11 10 -2 10 6 0
12 7 12 15 0 8 5 15 10 15 6 0 10 5 10 11 0 6 9 24 21 40 12 17 16 29 9 29 -7
0 -2 9 11 20 13 10 20 19 16 20 -5 0 -1 7 8 16 13 14 14 19 3 25 -10 7 -9 9 5
9 9 0 17 6 17 14 0 7 7 19 15 26 9 7 14 19 11 27 -3 7 -1 13 4 13 11 0 41 60
35 70 -3 4 2 11 11 14 9 4 14 13 10 21 -3 9 0 15 10 15 8 0 12 5 9 10 -3 6 -1
10 5 10 6 0 9 4 5 9 -3 5 1 16 9 24 8 8 12 17 9 21 -4 3 -1 6 6 6 7 0 9 5 6
10 -3 6 -1 10 5 10 7 0 10 7 6 15 -3 8 -1 15 5 15 5 0 15 13 20 30 6 17 15 30
20 30 5 0 9 9 9 20 0 11 5 20 11 20 6 0 9 9 6 20 -3 11 0 18 7 17 6 -1 10 4 9
11 -2 6 1 12 5 12 4 0 14 16 21 35 8 22 17 33 24 29 7 -4 9 -4 5 1 -4 4 -2 15
5 23 10 13 9 14 -3 7 -12 -7 -13 -6 -3 7 7 8 9 18 5 22 -4 4 -1 6 7 4 9 -2 19
11 26 36 10 34 13 37 20 20 11 -27 12 -47 1 -61 -5 -8 -4 -13 3 -13 7 0 8 -8
1 -25 -5 -14 -6 -25 -2 -25 9 0 8 -123 -2 -138 -4 -7 -4 -12 1 -12 10 0 9
-132 -1 -148 -4 -7 -4 -12 1 -12 10 0 9 -132 -1 -148 -4 -7 -4 -12 1 -12 10 0
9 -132 -1 -148 -4 -7 -4 -12 1 -12 4 0 8 -20 8 -45 0 -25 -3 -45 -7 -45 -4 0
-5 -6 -2 -13 9 -24 10 -98 2 -103 -5 -3 -6 -10 -2 -15 9 -15 11 -109 2 -109
-4 0 -5 -6 -2 -13 9 -24 10 -98 2 -103 -5 -3 -6 -10 -2 -15 9 -16 10 -109 1
-109 -4 0 -4 -8 2 -17 5 -10 5 -26 0 -40 -5 -13 -5 -23 -1 -23 11 0 9 -104 -3
-112 -7 -5 -6 -8 1 -8 6 0 10 -17 9 -37 0 -21 4 -44 10 -52 7 -11 7 -13 -2 -7
-8 4 -13 1 -13 -9 0 -10 5 -13 13 -9 8 5 8 2 -2 -9 -7 -9 -10 -17 -6 -17 4 0
2 -6 -4 -14 -8 -9 -8 -16 -2 -20 5 -4 9 -19 7 -34 -1 -15 2 -33 8 -41 8 -11 8
-13 -1 -7 -8 4 -13 1 -13 -9 0 -10 5 -13 13 -9 8 5 8 2 -2 -9 -7 -9 -10 -17
-6 -17 4 0 2 -6 -4 -14 -8 -9 -8 -16 -2 -20 5 -4 9 -19 7 -34 -1 -15 2 -33 8
-41 8 -11 8 -13 -1 -7 -8 4 -13 1 -13 -9 0 -10 5 -13 13 -9 8 5 8 2 -2 -9 -7
-9 -10 -17 -6 -17 4 0 2 -6 -4 -14 -7 -9 -8 -17 -2 -20 5 -3 8 -33 7 -66 -2
-34 1 -63 6 -66 4 -3 5 -10 1 -17 -10 -17 -11 -150 0 -164 6 -9 4 -15 -8 -19
-13 -5 -14 -9 -4 -15 10 -6 19 3 31 28 10 20 15 40 12 45 -3 4 0 7 8 6 7 -2
12 3 11 10 -2 6 2 12 8 12 5 0 8 4 4 9 -3 5 -1 12 5 16 6 4 8 10 5 15 -3 4 2
11 11 14 9 3 14 13 11 20 -3 8 1 17 9 20 9 3 13 10 10 15 -3 5 1 11 9 15 8 3
12 12 9 21 -3 8 -1 15 6 15 6 0 8 4 5 10 -3 5 -1 10 4 10 6 0 11 9 11 19 0 10
7 21 15 25 8 3 14 9 13 13 -1 4 3 17 9 28 6 11 13 25 15 30 1 6 7 9 13 7 5 -2
7 0 3 3 -4 4 0 22 9 39 10 17 16 34 15 39 -1 4 3 7 10 7 6 0 9 3 5 6 -3 4 5
23 18 43 14 19 25 44 25 54 0 10 5 15 10 12 6 -3 10 3 10 14 0 12 5 21 10 21
6 0 10 6 10 13 0 16 50 110 64 119 7 5 6 8 -4 8 -13 1 -13 2 1 13 21 17 50 77
42 90 -3 5 -1 7 4 4 9 -6 18 5 28 33 9 27 21 47 34 58 9 8 10 11 4 7 -7 -3
-13 -2 -13 3 0 6 7 13 16 16 9 4 14 9 11 12 -3 4 1 13 9 21 8 8 12 19 9 24 -4
5 -1 9 6 9 7 0 9 3 6 7 -4 3 3 18 15 31 13 14 16 21 8 17 -8 -5 -5 4 8 19 12
16 20 32 17 36 -3 4 2 10 10 14 8 3 15 15 15 26 0 11 4 20 8 20 4 0 14 16 21
35 7 19 17 35 22 35 6 0 7 5 4 11 -4 6 1 17 11 25 11 9 12 12 5 8 -9 -5 -6 4
7 23 12 17 19 33 15 37 -3 3 -1 6 5 6 10 0 23 25 21 44 0 5 5 12 12 17 7 4 14
15 15 25 2 9 8 20 15 24 6 4 8 13 5 19 -4 6 -2 11 3 11 6 0 11 5 11 11 0 7 8
18 18 26 11 10 12 12 2 8 -13 -6 -13 -5 0 7 15 13 22 31 23 55 0 7 4 10 9 7 7
-5 12 10 9 29 0 4 3 7 8 7 9 0 27 40 22 48 -1 1 5 10 14 18 8 9 15 22 15 30 0
8 5 14 11 14 6 0 8 7 5 15 -3 9 1 18 9 21 17 7 21 64 5 64 -5 0 -10 5 -10 11
0 5 4 7 10 4 6 -4 10 8 10 29 0 22 -5 36 -12 36 -9 0 -8 4 2 10 13 8 13 13 2
31 -8 11 -9 18 -3 14 6 -3 11 1 11 9 0 9 -4 16 -10 16 -5 0 -10 5 -10 11 0 5
5 7 10 4 6 -4 10 8 10 29 0 22 -5 36 -12 36 -9 0 -8 4 2 10 13 8 13 13 2 31
-8 11 -9 18 -3 14 6 -3 11 1 11 9 0 9 -4 16 -10 16 -5 0 -10 5 -10 11 0 5 4 7
10 4 6 -4 10 8 10 29 0 22 -5 36 -12 36 -9 0 -8 4 2 10 13 8 13 13 2 31 -8 11
-9 18 -3 14 6 -3 11 1 11 9 0 9 -4 16 -10 16 -5 0 -10 5 -10 11 0 5 4 7 10 4
6 -4 10 8 10 29 0 22 -5 36 -12 36 -9 0 -8 4 2 10 13 8 13 13 2 31 -8 11 -9
18 -3 14 6 -3 11 1 11 9 0 9 -4 16 -10 16 -5 0 -10 5 -10 11 0 5 5 7 10 4 6
-4 10 8 10 29 0 22 -5 36 -12 36 -9 0 -8 4 2 10 13 8 13 13 2 31 -8 11 -9 18
-3 14 6 -3 11 1 11 9 0 9 -4 16 -10 16 -5 0 -10 5 -10 11 0 5 5 7 10 4 6 -4
10 8 10 29 0 22 -5 36 -12 36 -9 0 -8 4 2 10 13 8 13 13 2 31 -8 11 -9 18 -3
14 6 -3 11 1 11 9 0 9 -4 16 -10 16 -5 0 -10 5 -10 11 0 5 4 7 10 4 6 -4 10 8
10 29 0 22 -5 36 -12 36 -9 0 -8 4 2 10 13 8 13 13 2 31 -8 11 -9 18 -3 14 6
-3 11 1 11 9 0 9 -4 16 -10 16 -5 0 -10 5 -10 11 0 5 4 7 10 4 6 -4 10 8 10
29 0 22 -5 36 -12 36 -9 0 -8 4 2 10 13 8 13 13 2 31 -8 11 -9 18 -3 14 6 -3
11 1 11 9 0 9 -4 16 -10 16 -5 0 -10 5 -10 11 0 5 4 7 10 4 6 -4 10 8 10 29 0
22 -5 36 -12 36 -9 0 -8 4 2 10 13 8 13 13 2 31 -8 11 -9 18 -3 14 6 -3 11 1
11 9 0 9 -4 16 -10 16 -5 0 -10 5 -10 11 0 5 4 7 10 4 6 -4 10 8 10 29 0 22
-5 36 -12 36 -9 0 -8 4 2 10 13 8 13 13 2 31 -8 11 -9 18 -3 14 6 -3 11 1 11
9 0 9 -4 16 -10 16 -5 0 -10 5 -10 11 0 5 4 7 10 4 6 -4 10 10 10 35 0 23 -4
39 -9 35 -5 -3 -12 -1 -15 4 -4 5 -1 13 5 17 8 5 9 3 4 -7 -5 -8 -4 -11 1 -6
11 11 13 78 2 71 -4 -3 -8 -2 -9 3 0 4 -2 16 -4 26 -2 9 1 15 6 11 5 -3 7 -10
4 -15 -4 -5 -2 -9 3 -9 6 0 9 11 8 25 0 14 -6 23 -12 21 -11 -4 -14 68 -2 79
3 3 4 -10 2 -29 -1 -20 0 -36 4 -36 4 0 8 20 8 44 0 25 -4 42 -8 40 -4 -3 -8
-2 -9 3 0 4 -2 16 -4 26 -2 9 1 15 6 11 5 -3 7 -10 4 -15 -4 -5 -2 -9 3 -9 6
0 9 11 8 25 0 14 -6 23 -12 21 -11 -4 -14 68 -2 79 3 3 4 -10 2 -29 -1 -20 0
-36 4 -36 4 0 8 20 8 44 0 25 -4 42 -8 40 -4 -3 -8 -2 -9 3 0 4 -2 16 -4 26
-2 9 1 15 6 11 5 -3 7 -10 4 -15 -4 -5 -2 -9 3 -9 6 0 9 11 8 25 0 14 -6 23
-12 21 -11 -4 -14 68 -2 79 3 3 4 -10 2 -29 -1 -20 0 -36 4 -36 4 0 8 20 8 44
0 25 -4 42 -8 40 -5 -3 -8 -2 -9 3 0 4 -2 16 -4 26 -2 9 1 15 6 11 5 -3 7 -10
4 -15 -4 -5 -2 -9 3 -9 6 0 9 11 8 25 0 14 -6 23 -12 21 -11 -4 -14 68 -2 79
3 3 4 -10 2 -29 -1 -20 0 -36 4 -36 4 0 8 20 8 44 0 25 -4 42 -8 40 -4 -3 -8
-2 -9 3 0 4 -2 18 -3 31 -2 13 2 26 7 29 6 3 7 1 3 -5 -3 -6 -3 -13 2 -16 4
-2 9 4 9 15 2 19 -10 19 -443 19 -244 0 -443 -3 -443 -7 1 -5 1 -15 0 -23 -1
-13 -2 -13 -12 0 -9 12 -10 11 -6 -7 3 -13 -1 -24 -10 -27 -8 -3 -12 -10 -9
-15 4 -5 1 -11 -4 -13 -6 -2 -12 -10 -13 -18 -1 -8 -10 -26 -19 -39 -10 -13
-15 -28 -12 -33 3 -4 1 -8 -5 -8 -5 0 -16 -14 -25 -30 -9 -19 -10 -28 -3 -24
7 4 2 -3 -11 -15 -12 -12 -20 -26 -17 -32 4 -5 1 -9 -5 -9 -6 0 -8 -4 -5 -10
3 -5 1 -10 -4 -10 -6 0 -11 -7 -11 -15 0 -8 -5 -15 -11 -15 -5 0 -8 -4 -5 -8
3 -5 -7 -26 -21 -47 -14 -21 -19 -35 -12 -31 8 4 6 1 -3 -7 -10 -8 -18 -19
-18 -26 0 -6 -6 -11 -12 -11 -10 0 -10 -2 0 -9 11 -7 11 -9 -2 -14 -9 -4 -16
-13 -16 -22 0 -8 -4 -15 -10 -15 -5 0 -10 -3 -9 -7 2 -16 -14 -53 -23 -53 -5
0 -6 -5 -3 -10 3 -6 -1 -13 -9 -16 -9 -3 -13 -10 -10 -15 3 -5 -1 -9 -8 -9 -9
0 -9 -3 2 -10 8 -5 10 -10 4 -10 -11 0 -46 -62 -43 -76 0 -4 -6 -11 -15 -16
-9 -5 -14 -13 -11 -19 4 -5 1 -9 -5 -9 -6 0 -8 -4 -5 -10 3 -5 1 -10 -5 -10
-6 0 -8 -4 -5 -10 3 -5 1 -10 -6 -10 -7 0 -10 -3 -6 -6 3 -4 0 -13 -8 -21 -8
-8 -15 -23 -15 -34 0 -11 -4 -18 -9 -15 -5 3 -12 -1 -15 -10 -4 -10 -2 -13 6
-7 7 4 3 -6 -10 -21 -12 -16 -22 -35 -22 -43 0 -7 -6 -16 -13 -19 -7 -2 -13
-13 -14 -24 -1 -11 -9 -27 -17 -36 -9 -8 -16 -22 -16 -29 0 -7 -7 -21 -16 -29
-8 -9 -13 -16 -9 -16 3 0 -2 -12 -13 -27 -10 -16 -24 -43 -31 -60 -8 -18 -17
-33 -22 -33 -5 0 -9 -9 -9 -19 0 -11 -5 -23 -10 -26 -6 -4 -8 -10 -5 -15 3 -4
-2 -11 -11 -14 -9 -4 -14 -13 -10 -21 3 -8 2 -15 -3 -15 -5 0 -14 -13 -21 -30
-7 -16 -16 -30 -21 -30 -5 0 -8 -3 -7 -7 3 -12 -33 -83 -43 -83 -5 0 -6 -7 -3
-15 4 -8 1 -15 -5 -15 -6 0 -11 -9 -11 -20 0 -11 -5 -20 -11 -20 -6 0 -9 -5
-7 -12 2 -6 -4 -20 -14 -30 -10 -10 -16 -23 -13 -28 4 -6 1 -10 -4 -10 -6 0
-11 -5 -11 -11 0 -7 -8 -18 -18 -25 -11 -9 -12 -13 -4 -14 8 0 5 -8 -8 -22
-11 -12 -18 -28 -16 -34 3 -7 -2 -15 -10 -18 -9 -3 -13 -10 -10 -15 3 -5 -1
-12 -9 -15 -8 -3 -14 -9 -13 -13 4 -14 -13 -53 -23 -53 -6 0 -7 -4 -4 -10 3
-5 1 -10 -4 -10 -6 0 -11 -6 -11 -14 0 -8 -7 -22 -16 -30 -8 -9 -12 -16 -8
-16 3 0 1 -7 -6 -15 -7 -8 -9 -15 -4 -15 5 0 -2 -7 -14 -16 -12 -8 -20 -19
-18 -23 3 -4 -4 -22 -15 -40 -11 -18 -14 -30 -7 -26 7 4 2 -3 -12 -14 -14 -11
-19 -21 -12 -21 10 0 10 -4 -2 -16 -9 -8 -16 -20 -16 -25 0 -6 -4 -8 -9 -5 -5
4 -8 -2 -7 -11 2 -10 -3 -24 -11 -31 -7 -8 -11 -17 -8 -22 3 -4 -2 -11 -11
-14 -8 -3 -12 -10 -9 -16 3 -5 1 -10 -5 -10 -6 0 -9 -4 -5 -9 3 -6 -3 -14 -12
-20 -10 -6 -14 -11 -10 -11 5 0 -1 -15 -12 -33 -11 -19 -18 -37 -14 -40 3 -4
2 -7 -4 -7 -9 0 -26 -29 -33 -55 -1 -5 -11 -22 -21 -37 -10 -14 -19 -33 -19
-42 0 -9 -4 -16 -9 -16 -5 0 -16 -18 -25 -40 -9 -22 -20 -40 -26 -40 -5 0 -10
-5 -10 -11 0 -5 6 -7 13 -4 6 4 4 0 -5 -8 -10 -8 -15 -17 -11 -20 3 -4 1 -7
-5 -7 -7 0 -11 -6 -9 -12 1 -7 -4 -12 -11 -10 -8 1 -11 -2 -8 -7 9 -14 -5 -42
-18 -34 -6 3 -8 3 -4 -2 4 -4 1 -20 -8 -36 -8 -16 -11 -29 -7 -29 5 0 0 -7
-11 -15 -10 -7 -16 -18 -13 -23 3 -4 -2 -14 -13 -22 -10 -7 -16 -20 -12 -28 3
-10 1 -13 -6 -8 -8 5 -12 0 -12 -12 0 -11 -9 -31 -21 -46 -11 -14 -17 -30 -14
-36 3 -5 1 -10 -4 -10 -6 0 -17 -16 -25 -35 -8 -19 -19 -35 -23 -35 -16 0 -32
22 -26 36 3 8 -1 14 -11 14 -10 0 -13 6 -10 15 4 8 2 15 -3 15 -10 0 -40 69
-36 82 2 4 -3 7 -10 5 -6 -1 -12 5 -12 13 0 8 -6 19 -13 23 -7 5 -10 12 -7 18
4 5 1 9 -4 9 -6 0 -11 5 -11 12 0 6 -8 20 -17 31 -13 15 -14 18 -3 12 12 -6
11 -4 -2 11 -9 10 -18 26 -20 34 -2 8 -12 23 -23 33 -11 10 -14 16 -5 12 9 -4
7 0 -4 9 -10 8 -15 20 -11 25 3 6 -1 14 -9 17 -9 3 -14 9 -11 14 2 4 -4 16
-13 26 -10 10 -19 22 -20 27 -10 44 -16 57 -23 57 -5 0 -9 7 -9 15 0 8 -8 23
-18 33 -10 10 -16 24 -14 30 2 7 -1 12 -7 12 -6 0 -11 9 -11 21 0 11 -4 17
-10 14 -9 -5 -15 15 -11 38 0 4 -3 7 -9 7 -5 0 -10 7 -10 15 0 8 -4 15 -10 15
-5 0 -10 7 -10 15 0 8 -4 15 -10 15 -5 0 -7 7 -4 15 4 8 1 15 -7 15 -7 0 -10
3 -6 6 3 4 -1 13 -9 21 -8 8 -12 19 -9 24 4 5 -2 9 -11 9 -10 0 -14 3 -11 6 3
4 1 16 -5 28 -7 11 -12 25 -13 29 0 4 -6 11 -13 16 -8 5 -14 11 -14 14 0 19
-12 47 -19 47 -5 0 -9 9 -9 19 0 11 -4 21 -9 23 -5 2 -11 10 -13 18 -2 8 -6
17 -10 20 -3 3 -8 12 -10 20 -2 8 -10 21 -18 28 -13 12 -13 13 0 6 8 -4 5 4
-8 18 -12 13 -19 28 -15 31 3 4 1 7 -5 7 -7 0 -12 9 -12 21 0 11 -4 18 -9 14
-5 -3 -11 5 -13 17 -2 13 -8 22 -14 21 -6 -1 -10 9 -8 22 1 14 -2 25 -7 25 -5
0 -9 7 -9 15 0 8 -4 15 -9 15 -10 0 -23 30 -18 40 1 3 -8 16 -20 29 -12 13
-19 30 -16 39 4 10 2 13 -5 8 -8 -5 -12 0 -12 12 0 11 -7 22 -15 26 -8 3 -15
9 -14 13 2 16 -14 53 -23 53 -5 0 -6 5 -3 10 3 6 1 10 -5 10 -6 0 -8 5 -5 10
3 6 1 10 -5 10 -6 0 -8 4 -5 10 3 5 -3 15 -14 21 -11 7 -17 19 -13 27 3 10 1
13 -6 8 -8 -4 -10 -2 -6 7 3 8 -2 22 -11 31 -9 9 -17 25 -18 35 0 11 -4 18 -7
16 -4 -2 -13 11 -20 30 -8 19 -17 35 -22 35 -4 0 -8 7 -8 16 0 8 -7 22 -16 31
-8 9 -13 22 -10 30 3 8 1 11 -4 8 -6 -3 -10 0 -10 8 0 8 -9 26 -20 40 -11 14
-20 35 -20 47 0 11 -4 18 -10 15 -5 -3 -10 1 -10 9 0 9 -5 16 -11 16 -5 0 -8
4 -5 9 3 5 -4 20 -15 35 -11 14 -18 26 -14 26 3 0 -1 10 -10 23 -8 13 -12 28
-8 33 5 5 4 6 -1 1 -6 -4 -18 10 -28 33 -10 22 -23 40 -29 40 -6 0 -7 4 -4 10
6 9 -21 59 -38 71 -5 3 -9 9 -9 12 0 19 -12 47 -19 47 -5 0 -9 7 -9 16 0 9 -8
23 -18 31 -9 8 -11 12 -4 8 17 -9 15 -2 -8 25 -12 13 -18 30 -15 38 3 9 0 12
-9 9 -11 -4 -13 -1 -9 10 4 11 3 14 -6 9 -6 -4 -10 -4 -9 1 4 14 -13 53 -23
53 -6 0 -8 4 -4 9 3 5 -1 15 -8 23 -14 14 -16 17 -24 48 -3 11 -8 20 -12 20
-4 0 -13 16 -21 35 -8 19 -19 35 -24 35 -6 0 -5 4 2 9 11 7 10 9 -3 15 -9 3
-13 10 -10 16 3 5 -1 10 -9 10 -9 0 -15 3 -14 8 3 16 -15 61 -23 56 -5 -3 -9
4 -9 14 0 11 -7 25 -15 32 -8 6 -14 15 -13 18 2 11 -15 46 -29 60 -7 8 -11 18
-8 23 4 5 3 9 -2 9 -4 0 -14 14 -21 30 l-14 30 -432 0 -433 0 0 -2515z m5030
1770 c-3 -9 -8 -14 -10 -11 -3 3 -2 9 2 15 9 16 15 13 8 -4z"/>
</g>
</svg>
